<svg width="100%" height="100%" viewBox="0 0 504 504" preserveAspectRatio="xMidYMid meet">
	<path fill="#828282" stroke="#828282" stroke-width="1" d="M 194.00,0.11 C 194.00,0.11 253.00,0.11 253.00,0.11 253.00,0.11 335.00,0.11 335.00,0.11 335.00,0.11 357.00,1.00 357.00,1.00 357.00,1.00 367.00,1.91 367.00,1.91 410.15,5.06 449.55,20.83 475.57,57.00 492.38,80.37 500.01,108.62 502.09,137.00 502.09,137.00 503.00,147.00 503.00,147.00 503.00,147.00 504.00,169.00 504.00,169.00 504.00,169.00 504.00,230.00 504.00,230.00 504.00,230.00 504.00,293.00 504.00,293.00 504.00,293.00 504.00,335.00 504.00,335.00 504.00,335.00 503.00,357.00 503.00,357.00 503.00,357.00 502.09,367.00 502.09,367.00 499.49,402.59 488.42,436.02 462.96,461.99 456.52,468.56 445.96,476.81 438.00,481.55 427.86,487.58 414.43,493.10 403.00,496.12 386.65,500.43 368.90,502.97 352.00,503.00 352.00,503.00 335.00,504.00 335.00,504.00 335.00,504.00 167.00,504.00 167.00,504.00 167.00,504.00 152.00,503.00 152.00,503.00 152.00,503.00 147.00,503.00 147.00,503.00 147.00,503.00 137.00,502.09 137.00,502.09 101.10,499.47 64.01,487.34 39.17,460.00 14.66,433.03 4.53,402.83 1.91,367.00 1.91,367.00 1.00,357.00 1.00,357.00 1.00,357.00 0.00,335.00 0.00,335.00 0.00,335.00 0.00,167.00 0.00,167.00 0.00,167.00 0.96,157.00 0.96,157.00 0.96,157.00 0.96,147.00 0.96,147.00 0.96,147.00 1.91,137.00 1.91,137.00 4.53,101.17 14.66,70.97 39.17,44.00 60.17,20.88 92.44,7.40 123.00,3.28 123.00,3.28 147.00,1.00 147.00,1.00 152.42,0.94 155.46,1.21 161.00,0.11 161.00,0.11 194.00,0.11 194.00,0.11 Z M 157.00,47.00 C 157.00,47.00 139.00,48.17 139.00,48.17 110.09,50.94 85.98,59.49 67.45,83.00 49.77,105.43 47.04,138.46 47.00,166.00 47.00,166.00 46.00,181.00 46.00,181.00 46.00,181.00 46.00,252.00 46.00,252.00 46.00,252.00 46.00,323.00 46.00,323.00 46.00,323.00 47.00,338.00 47.00,338.00 47.00,338.00 47.00,349.00 47.00,349.00 47.00,349.00 47.91,359.00 47.91,359.00 50.18,391.44 58.50,420.25 87.00,439.48 110.53,455.36 140.61,456.68 168.00,457.00 168.00,457.00 183.00,458.00 183.00,458.00 183.00,458.00 323.00,458.00 323.00,458.00 323.00,458.00 338.00,457.00 338.00,457.00 338.00,457.00 349.00,457.00 349.00,457.00 349.00,457.00 359.00,456.09 359.00,456.09 376.64,454.86 394.13,452.03 410.00,443.68 443.08,426.27 453.65,393.83 456.09,359.00 456.09,359.00 457.04,347.00 457.04,347.00 457.04,347.00 457.04,333.00 457.04,333.00 457.04,333.00 458.00,321.00 458.00,321.00 458.00,321.00 458.00,181.00 458.00,181.00 458.00,181.00 457.00,166.00 457.00,166.00 457.00,166.00 457.00,155.00 457.00,155.00 457.00,155.00 456.09,145.00 456.09,145.00 454.60,123.76 450.58,101.38 437.32,84.00 412.68,51.67 375.87,47.06 338.00,47.00 338.00,47.00 321.00,46.09 321.00,46.09 321.00,46.09 245.00,46.09 245.00,46.09 245.00,46.09 176.00,46.09 176.00,46.09 169.45,47.23 163.57,46.99 157.00,47.00 Z M 388.00,87.00 C 401.54,87.16 413.42,96.72 416.47,110.00 417.10,112.72 417.03,116.18 417.00,119.00 416.94,124.15 416.06,128.47 413.47,133.00 407.03,144.26 397.34,148.14 385.00,148.00 366.44,147.78 355.80,133.68 356.00,116.00 356.06,111.15 356.75,107.38 358.99,103.00 363.21,94.77 370.27,89.87 379.00,87.52 382.36,86.98 384.62,86.96 388.00,87.00 Z M 289.00,127.29 C 306.10,132.20 321.24,140.14 335.00,151.46 393.09,199.27 398.28,289.64 345.00,343.00 334.17,353.85 323.85,361.99 310.00,368.74 290.63,378.18 269.45,382.25 248.00,382.00 237.64,381.88 223.99,379.28 214.00,376.42 135.91,354.05 99.81,263.10 136.26,192.00 151.22,162.81 178.02,139.74 209.00,129.08 220.75,125.03 229.98,124.14 242.00,122.42 255.90,120.73 275.53,123.42 289.00,127.29 Z M 169.00,248.00 C 168.98,261.87 168.95,268.62 174.06,282.00 184.97,310.51 214.79,334.63 246.00,335.00 262.56,335.19 272.67,334.80 288.00,327.24 299.06,321.79 307.63,315.43 315.70,306.00 345.65,271.00 340.55,216.61 305.00,187.46 286.28,172.11 264.75,167.07 241.00,169.29 202.21,175.21 169.06,207.43 169.00,248.00 Z">
	</path>
</svg>